<?xml version="1.0" standalone="no"?>
<!DOCTYPE svg PUBLIC "-//W3C//DTD SVG 20010904//EN"
 "http://www.w3.org/TR/2001/REC-SVG-20010904/DTD/svg10.dtd">
<svg version="1.0" xmlns="http://www.w3.org/2000/svg"
 width="144.000000pt" height="144.000000pt" viewBox="0 0 144.000000 144.000000"
 preserveAspectRatio="xMidYMid meet">
<metadata>
Created by potrace 1.11, written by Peter Selinger 2001-2013
</metadata>
<g transform="translate(0.000000,144.000000) scale(0.100000,-0.100000)"
fill="#000000" stroke="none">
<path d="M315 1433 c-113 -23 -168 -89 -160 -190 9 -101 55 -142 220 -194 86
-28 125 -63 125 -114 0 -64 -43 -103 -121 -109 -48 -4 -96 11 -153 47 l-49 31
-23 -28 c-13 -15 -24 -31 -24 -36 0 -19 69 -60 126 -75 70 -18 199 -13 241 9
66 34 102 99 98 177 -5 96 -50 139 -205 194 -118 41 -136 55 -144 104 -7 50
27 100 74 108 49 9 70 9 70 1 0 -5 5 -6 10 -3 6 4 37 -7 69 -24 l58 -30 21 26
c23 29 20 45 -11 66 -48 31 -163 51 -222 40z"/>
<path d="M727 1419 c-12 -7 -15 -55 -15 -324 0 -311 0 -316 20 -324 34 -12 68
-1 69 23 0 11 1 77 2 146 l2 125 155 0 155 0 2 -144 c2 -79 5 -146 8 -149 8
-8 50 -8 67 0 15 7 17 38 17 328 l0 320 -22 2 c-30 2 -60 -1 -65 -7 -3 -3 -5
-63 -4 -135 0 -71 -2 -130 -6 -131 -4 -1 -75 -2 -158 -3 l-150 -1 -1 133 c0
73 -3 135 -6 138 -9 10 -54 11 -70 3z"/>
<path d="M305 669 c-130 -49 -197 -173 -189 -347 10 -203 114 -314 294 -316
111 -1 165 18 226 79 61 60 83 118 91 231 8 116 -19 215 -75 281 -28 31 -92
73 -113 73 -11 0 -19 3 -19 8 0 15 -168 9 -215 -9z m185 -64 c55 -11 111 -75
131 -149 27 -100 7 -248 -43 -311 -61 -78 -216 -89 -290 -20 -52 48 -68 92
-73 203 -3 80 16 170 47 213 46 62 129 85 228 64z"/>
<path d="M858 671 c-13 -5 -15 -51 -14 -326 l1 -320 43 -3 c35 -3 42 0 43 15
0 10 1 68 2 128 l1 110 115 6 c141 8 166 13 208 45 47 35 64 76 65 148 1 49
-4 73 -23 106 -25 45 -80 82 -129 87 -54 6 -298 9 -312 4z m319 -93 c34 -16
53 -51 53 -101 0 -39 -23 -96 -40 -98 -15 -2 -30 -6 -32 -9 -8 -7 -101 -13
-189 -11 l-35 1 1 108 c1 59 2 113 3 121 2 11 22 13 106 8 58 -3 117 -11 133
-19z"/>
</g>
</svg>
